<svg width="12" height="15" viewBox="0 0 12 15" fill="none" xmlns="http://www.w3.org/2000/svg">
<path d="M10.25 12.75C10.25 13.2256 9.85794 13.7235 9.07018 14.1174C8.29737 14.5038 7.21224 14.75 6 14.75C4.78776 14.75 3.70263 14.5038 2.92982 14.1174C2.14206 13.7235 1.75 13.2256 1.75 12.75C1.75 12.2744 2.14206 11.7765 2.92982 11.3826C3.70263 10.9962 4.78776 10.75 6 10.75C7.21224 10.75 8.29737 10.9962 9.07018 11.3826C9.85794 11.7765 10.25 12.2744 10.25 12.75Z" stroke="#DB0000" stroke-width="0.5"/>
<path d="M0.25 3L1.75 12.75" stroke="#DB0000" stroke-width="0.5" stroke-linecap="round"/>
<path d="M11.75 3L10.25 12.75" stroke="#DB0000" stroke-width="0.5" stroke-linecap="round"/>
<g filter="url(#filter0_b_68_809)">
<path d="M11.5 3.50417C10.8214 4.18014 9.71943 5.5 6 5.5C1.9653 5.5 1.17933 4.17677 0.5 3.5L1.9653 12.8562C1.96847 12.8764 1.9747 12.8965 1.97472 12.9164C1.97472 12.9164 1.97472 14.5 6.00506 14.5C10.0354 14.5 10.0306 12.9164 10.0306 12.9164C10.0306 12.8965 10.0322 12.8764 10.0354 12.8562L11.5 3.50417Z" fill="white" fill-opacity="0.75"/>
</g>
<path d="M11.75 3C11.75 3.68272 11.19 4.36811 10.1308 4.89771C9.08658 5.41984 7.62646 5.75 6 5.75C4.37354 5.75 2.91342 5.41984 1.86916 4.89771C0.809952 4.36811 0.25 3.68272 0.25 3C0.25 2.31728 0.809952 1.63189 1.86916 1.10229C2.91342 0.580158 4.37354 0.25 6 0.25C7.62646 0.25 9.08658 0.580158 10.1308 1.10229C11.19 1.63189 11.75 2.31728 11.75 3Z" fill="white" fill-opacity="0.5" stroke="#DB0000" stroke-width="0.5"/>
<defs>
<filter id="filter0_b_68_809" x="0" y="3" width="12" height="12" filterUnits="userSpaceOnUse" color-interpolation-filters="sRGB">
<feFlood flood-opacity="0" result="BackgroundImageFix"/>
<feGaussianBlur in="BackgroundImage" stdDeviation="0.25"/>
<feComposite in2="SourceAlpha" operator="in" result="effect1_backgroundBlur_68_809"/>
<feBlend mode="normal" in="SourceGraphic" in2="effect1_backgroundBlur_68_809" result="shape"/>
</filter>
</defs>
</svg>
