<svg width="88" height="65" viewBox="0 0 88 65" fill="none" xmlns="http://www.w3.org/2000/svg">
<path d="M55.9383 6.82107C51.3428 12.0193 46.9415 17.3853 42.6048 22.8009C40.1484 25.8685 37.7015 28.9444 35.3104 32.0632C32.626 35.5646 29.395 38.803 27.6428 42.8521C27.4446 43.31 28.517 42.3453 28.8641 41.987C33.7776 36.915 38.2345 31.4198 42.9271 26.1428C47.9305 20.5163 54.5627 13.0145 60.0605 7.49962C61.2166 6.33994 62.3013 5.04727 63.7077 4.20864C64.2512 3.88461 63.1892 5.37884 62.7917 5.87109C54.92 15.6192 45.5539 24.3269 37.0746 33.5221C33.568 37.3247 30.0767 41.1429 26.6758 45.0405C24.3066 47.7557 17.3036 55.7479 20.3314 53.7938C22.116 52.642 23.5917 51.0662 25.1321 49.6037C29.9851 44.9962 38.2971 36.3817 42.7405 31.7239C126.06 -55.6152 -9.48471 86.297 58.89 14.4548C60.0285 13.2586 61.0207 11.8659 62.4015 10.9602C62.8109 10.6917 62.2947 11.9639 62.0453 12.3852C56.2607 22.1577 49.0056 31.268 42.1807 40.3076C39.7867 43.4784 37.3407 46.6097 34.9372 49.7734C33.3712 51.8346 31.786 53.8822 30.2721 55.9821C29.6814 56.8015 27.9651 57.7634 28.6267 58.5267C29.263 59.261 30.0495 57.2007 30.7132 56.491C33.5106 53.4997 40.3088 45.712 42.4352 43.2762C48.0834 36.8061 51.8417 32.4698 57.3463 25.9562C59.9909 22.8269 62.3334 19.417 65.2684 16.5583C68.2862 13.6189 61.1557 23.9193 58.8561 27.449C53.0265 36.3971 46.8714 45.127 41.0272 54.0652C41.0193 54.0772 32.3723 66.6705 40.0263 57.882C49.2396 47.3032 57.9024 36.2443 66.8969 25.4812C67.9667 24.2011 69.0188 22.9038 70.154 21.6813C72.4947 19.1605 70.6854 22.1545 70.0013 23.3947C65.4132 31.7127 60.2107 39.6958 55.3276 47.8395C53.7582 50.4569 52.1884 53.0748 50.6796 55.7276C49.637 57.5607 46.4283 62.774 48.118 61.5123C51.2485 59.1749 53.1017 55.4895 55.4294 52.3519C56.7167 50.6167 64.0174 40.2259 66.3541 38.1871C66.8485 37.7557 68.2879 37.4809 68.3219 38.1362C68.4486 40.5801 64.0818 53.1552 63.7417 54.2518C63.1293 56.2259 62.3461 58.1665 62.0114 60.2061C61.9615 60.5099 62.4299 61.0767 62.656 60.8677C63.7924 59.8174 64.5021 58.3827 65.3702 57.1017C68.729 52.1452 71.6257 46.8636 75.0735 41.97C76.4751 39.9806 76.3159 40.7599 75.7181 42.6146C75.5556 43.119 72.3706 51.8157 72.3253 51.9447C71.8798 53.2153 71.4209 54.4833 71.0531 55.7785C70.7979 56.6768 70.0438 58.7206 71.6129 57.1696C74.7085 54.1095 76.9989 50.1809 79.7894 46.8556C80.2795 46.2716 84.3059 40.6511 84.0643 45.1083C83.7573 50.7702 81.8818 56.6019 80.5867 62.106C80.5104 62.4305 80.5789 63.2972 80.3323 63.073C80.0514 62.8177 80.378 62.3153 80.4001 61.9364C80.4459 61.1504 80.4979 60.3648 80.5358 59.5784C80.6446 57.3233 80.6159 55.0425 80.8242 52.7929C80.9349 51.5972 81.0383 53.1458 81.0447 53.2C81.0944 53.6194 81.5553 54.7044 81.2144 54.4554C78.0241 52.1251 75.6987 48.7976 72.936 45.9735C61.9738 34.7674 50.7276 23.966 39.0085 13.5557C37.8611 12.5365 34.0171 10.6285 35.5479 10.5192C37.4428 10.3838 38.8044 12.4765 40.4334 13.4539C44.3459 15.8014 48.2618 18.1432 52.1724 20.4939C57.377 23.6225 62.5912 26.7353 67.7791 29.8918C72.2381 32.6049 76.7906 35.1759 81.1126 38.1023C82.9507 39.3468 85.5795 40.2514 86.2187 42.3771C86.5731 43.5559 83.7986 43.0498 82.5715 42.9539C78.8345 42.6618 75.1692 41.7657 71.4602 41.2236C62.3256 39.8887 53.5472 38.569 44.3181 38.1362C43.9259 38.1178 25.3928 36.942 35.7175 42.8182C44.4768 47.8035 54.9089 50.611 64.4372 53.675C66.8906 54.464 69.353 55.2251 71.8164 55.9821C75.2027 57.0227 75.2729 56.9895 72.1896 55.9821C55.9135 50.6642 39.5383 45.6641 23.0965 40.8843C16.4293 38.9462 -3.69288 33.611 3.09616 35.0658C12.4679 37.074 21.7745 40.158 31.0016 42.6825C43.3066 46.0491 55.6414 49.2739 67.9996 52.4367C69.8042 52.8985 75.2069 54.324 73.3941 53.8956C69.2592 52.9182 65.1694 51.7587 61.0444 50.7403C50.7755 48.205 40.1474 45.4158 29.5088 45.0574C25.595 44.9256 16.3092 45.6334 23.758 50.9608C31.5334 56.5218 42.9456 60.0445 52.4099 60.5962C55.837 60.796 63.3328 60.5546 64.997 55.7785C66.607 51.158 62.0534 43.3344 59.9079 40.3754C53.2695 31.2203 43.6401 24.4143 33.9872 18.8314C31.846 17.593 29.6555 16.4318 27.4053 15.4047C24.3279 14.0001 24.3509 14.6895 26.7946 16.4904C34.9684 22.5141 44.1822 27.3533 53.292 31.7578C57.5824 33.8322 64.6372 37.1085 69.6281 38.5094C72.2132 39.2351 74.1717 39.6151 71.6638 36.813C69.175 34.0324 39.4583 11.4785 37.8719 14.3869C36.8837 16.1986 44.5531 24.4399 45.1494 25.1759C47.9286 28.6063 56.3182 38.6584 54.3437 34.7095C52.1557 30.3335 47.6268 26.4622 43.6566 23.8866C38.9469 20.8314 31.5662 17.1746 25.7089 19.51C21.1886 21.3123 21.8256 26.8003 23.334 30.265C24.1824 32.2139 25.7625 35.0878 28.4061 35.1845C31.0812 35.2824 32.4275 32.4123 33.2917 30.5534C33.9234 29.1946 34.3351 27.74 34.7336 26.2955C35.2515 24.4183 34.9946 22.3096 35.8532 20.5617C35.9399 20.3852 36.302 20.586 36.413 20.7483C37.9595 23.0086 38.7847 25.6871 40.0602 28.1106C43.1392 33.9606 46.5228 41.0462 51.5278 45.5663C55.3489 49.0173 53.0016 39.1472 52.8849 38.2719" stroke="#9AA0A6" stroke-width="3" stroke-linecap="round"/>
</svg>
