<svg width="101" height="88" viewBox="0 0 101 88" fill="none" xmlns="http://www.w3.org/2000/svg">
<path d="M58.5688 44.8513C58.056 43.1633 56.9637 41.4852 55.3768 40.5872C51.9121 38.6264 51.2197 47.0084 51.2955 48.4697C51.3994 50.4741 51.6899 52.418 53.4762 53.6598C55.7428 55.2353 59.4399 54.2011 61.5172 52.8435C66.0468 49.8831 66.9629 43.0693 64.6483 38.4795C62.5721 34.3627 58.0155 32.1052 53.5493 31.8518C47.3417 31.4996 42.1742 35.4281 39.7579 41.0014C36.8661 47.6717 36.8343 56.6013 42.5113 61.8469C48.005 66.923 56.9745 66.5688 62.5162 61.6885C67.5986 57.2127 68.8287 49.7498 67.3164 43.4137C65.2763 34.866 58.4843 29.8409 49.9553 29.0618C42.1093 28.3451 34.3473 31.4682 32.2287 39.71C30.6217 45.9617 33.7022 52.664 39.1244 55.9502C44.4069 59.1517 52.1927 59.7782 57.6673 56.6446C61.9045 54.2193 63.682 49.4804 63.0279 44.8026C62.2657 39.3519 58.6236 35.0044 53.2082 33.6427C47.6547 32.2464 41.9141 34.5123 39.3193 39.7222C36.8264 44.7278 38.2663 50.252 42.3895 53.9156C51.4105 61.9308 66.8306 59.8913 76.2832 53.745C80.5785 50.9522 84.7388 46.1995 86.4197 41.2694C88.7523 34.4279 87.401 25.7554 81.3271 21.2524C76.6287 17.7691 71.7946 17.3962 66.1955 18.633C57.6347 20.5241 51.2407 26.7129 48.4568 34.9585C45.1634 44.7132 47.3142 56.7114 54.4753 64.247C60.2667 70.3413 70.7432 72.4986 77.8183 67.3903C83.2615 63.4602 84.6137 55.8211 82.2286 49.7733C80.3458 44.999 75.2284 40.5346 69.7896 41.6471C64.5888 42.7109 60.5666 48.349 57.9475 52.478C55.956 55.6176 53.3036 59.3735 54.6337 63.5038C55.3537 65.7399 56.87 67.782 58.6907 69.2665C62.5886 72.4447 71.0658 75.6734 76.1858 75.6261C80.8369 75.5832 83.2661 73.2728 83.0084 68.7304C82.8798 66.4651 81.9149 64.3087 81.0469 62.2124C78.8873 56.9965 76.3951 53.4068 72.4333 49.3591C61.7588 38.453 45.8439 35.1561 31.4977 40.5384C21.2404 44.3867 11.0014 54.0939 13.2107 65.9526C14.8111 74.5432 22.4665 78.0089 30.5474 78.2577C39.2124 78.5244 48.7115 75.8025 54.122 68.6451C58.9491 62.2595 58.8799 53.9917 56.3515 46.6788C54.4509 41.1816 51.0015 35.8413 46.0201 32.6681C40.7872 29.3346 33.6916 28.1479 28.3301 31.8274C22.2996 35.966 19.0967 44.9319 21.7999 51.9176C23.1458 55.3957 26.1714 58.4472 29.4022 60.1778C37.0936 64.2976 46.6374 64.9913 55.0844 63.5525C65.5516 61.7697 75.0716 56.0061 79.2072 45.8991C83.5092 35.3851 81.7117 22.3707 75.2111 13.1262C70.5791 6.53903 64.1261 3.87876 56.2784 5.56041C47.0054 7.54749 40.1807 14.0412 37.102 22.9946C34.658 30.1022 34.9472 38.2652 39.2462 44.632C45.197 53.4448 56.1736 56.6137 66.2199 57.2416C72.5778 57.639 82.4744 57.7446 86.3466 51.4059C89.9537 45.5011 87.6447 38.6277 82.9475 34.2275C77.7853 29.3919 70.479 27.4573 64.1731 31.4985C56.2421 36.5811 52.8719 47.5854 52.7331 56.4863C52.5723 66.7979 57.7741 75.9316 66.9022 80.8893C74.8976 85.2318 87.5733 86.6527 94.5824 79.5978C101.151 72.9866 98.6896 62.4652 95.3987 54.9634C89.2717 40.9965 77.3315 27.7549 63.3447 21.3377C50.2501 15.3298 36.3188 18.1226 24.5898 25.7846C12.8661 33.4431 1.45227 46.7317 2.20926 61.6885C2.74429 72.2597 10.2766 79.9521 19.8506 83.3746C32.8626 88.0262 49.0404 87.1623 61.6999 81.8395C66.0047 80.0296 68.9402 78.3671 72.0313 74.8464C77.7092 68.3794 78.5472 59.5265 77.2092 51.2597C75.8254 42.7104 71.998 32.8009 67.3164 25.5531C62.2105 17.6485 54.3865 9.80566 44.7287 8.14326C37.2998 6.8645 30.2035 11.6991 25.0893 16.5131C16.6283 24.4777 10.168 36.0677 10.835 48.0189C11.4693 59.3848 18.9963 67.7964 29.7433 70.7772C40.0954 73.6484 52.7751 72.5714 61.2735 65.4409C63.5165 63.559 66.2647 59.9973 67.292 57.1807C69.137 52.1225 67.7767 46.7555 65.9275 41.9639C62.0388 31.8877 55.4059 22.0761 48.1644 14.1008C42.7358 8.12223 35.8637 2.94327 27.66 1.83235C25.4719 1.53604 23.9475 1.56097 21.8364 1.97855C20.1016 2.32171 19.2419 3.06832 17.7794 3.84258" stroke="#9AA0A6" stroke-width="3" stroke-linecap="round"/>
</svg>
