<svg width="88" height="76" viewBox="0 0 88 76" fill="none" xmlns="http://www.w3.org/2000/svg">
<path d="M7.07694 28.7756C9.97561 25.6793 12.8472 22.6763 16.0677 19.8866C19.2178 17.158 23.2649 13.9494 26.6192 11.4387C28.3127 10.171 33.6842 5.39732 29.079 11.2012C18.484 24.5538 29.2746 10.5602 15.9151 27.6221C13.5855 30.5972 11.2418 33.5632 9.01081 36.6129C8.15787 37.7789 6.32837 38.8564 6.66981 40.2601C6.95084 41.4155 8.49265 38.7259 9.31616 37.8682C11.6281 35.4603 13.8293 32.9484 16.0677 30.472C23.5854 22.155 30.9139 13.6402 38.6635 5.53526C39.7281 4.42189 43.1014 1.38726 42.3277 2.71928C40.4523 5.94785 34.1235 13.5307 32.5226 15.4082C23.3415 26.1754 -5.55592 57.2846 3.95561 46.8081C13.3364 36.4757 21.8965 25.425 31.3351 15.1368C32.0317 14.3775 38.3943 7.49835 40.292 6.24774C43.7098 3.99545 37.3923 13.9842 35.1011 17.376C27.3967 28.7813 18.6121 40.2065 8.79028 49.8955C8.57965 50.1033 7.84361 50.5411 7.99299 50.2857C9.03672 48.5011 10.3231 46.8691 11.5384 45.1966C19.4208 34.349 27.6282 23.7235 35.9832 13.2368C36.6784 12.3642 38.7565 9.74698 38.1376 10.6753C37.068 12.2797 35.8001 13.7427 34.6261 15.2725C29.4443 22.0245 23.2767 29.9015 18.3748 36.7825C18.3412 36.8297 8.96103 49.9394 8.40012 52.8303C8.26466 53.5284 9.92447 52.8867 10.5036 52.474C14.3502 49.733 25.0151 38.7188 27.0263 36.6977C31.2642 32.4392 41.6302 21.7513 46.6026 17.2912C48.5849 15.513 54.0329 10.2983 50.3176 16.8671C47.2473 22.2954 39.5516 32.4244 36.3055 36.7656C33.5552 40.4438 30.7756 44.1001 27.9763 47.7411C26.0934 50.1903 24.2157 52.6446 22.2595 55.0356C21.5677 55.8811 20.2515 58.5157 20.0373 57.4444C19.7644 56.0801 21.2984 54.9618 22.0051 53.7633C23.6064 51.0474 25.2732 48.3701 26.9585 45.7055C33.4023 35.5173 40.0442 25.4314 46.9418 15.5439C48.0032 14.0225 49.0201 12.4639 50.1989 11.0315C50.4159 10.7678 50.0308 11.7029 49.8596 11.9985C44.3596 21.4941 38.0391 30.5969 31.9798 39.7342C28.8196 44.4998 25.7737 49.349 22.3783 53.9499C20.8546 56.0145 24.9674 49.5184 26.3139 47.334C29.9188 41.4855 33.4251 35.5748 37.1368 29.7935C38.3103 27.9655 39.3641 26.03 40.8179 24.4159C41.0336 24.1764 41.8012 24.352 41.7509 24.6704C41.3966 26.9142 40.4661 29.029 39.7492 31.1845C38.5568 34.7692 35.1304 44.0632 33.9645 48.0465C32.9674 51.4532 32.5694 53.0982 35.1011 49.5054C38.809 44.2433 39.422 42.0005 43.3455 36.6638C44.1393 35.584 44.7664 33.5434 46.0936 33.7291C47.1797 33.881 46.0552 35.9439 45.7713 37.0031C45.1675 39.2556 44.2614 41.4166 43.4473 43.602C42.8644 45.1665 42.097 46.6622 41.5813 48.2501C41.4896 48.5324 42.0076 47.8274 42.158 47.5715C45.0682 42.6206 47.7667 37.548 50.6399 32.5755C51.2287 31.5566 56.8943 21.7484 58.4093 19.6491C61.0132 16.0411 55.521 28.084 53.6425 32.1175C49.2143 41.6256 48.0932 43.6391 43.566 52.949C42.4058 55.335 41.1844 57.6935 40.1224 60.1247C38.1339 64.6771 41.1825 60.0428 41.7509 59.1747C44.5695 54.8697 49.7433 46.0405 52.1327 41.9735C54.0094 38.7792 55.8569 35.5679 57.7308 32.372C59.1592 29.9359 60.5512 27.4775 62.0396 25.0775C62.639 24.111 63.0587 22.9307 63.9904 22.2785C64.436 21.9666 63.9126 23.3757 63.736 23.8901C63.0045 26.0204 62.1104 28.0914 61.2762 30.1836C58.6282 36.8257 56.1518 42.6469 53.6764 49.3866C52.6358 52.2201 51.5566 55.0469 50.7417 57.9533C50.365 59.297 49.6349 60.7819 50.1141 62.0925C50.347 62.7296 51.4709 61.6378 51.8952 61.1086C54.2878 58.1248 59.4865 48.6016 60.9539 45.943C61.5544 44.855 68.2998 32.2637 69.5037 30.2345C70.0775 29.2672 70.4928 28.0799 71.4375 27.4694C71.8203 27.2221 71.7858 28.3603 71.7089 28.8096C71.1999 31.7869 68.2089 41.3827 67.6037 43.3306C65.3227 50.672 61.5371 58.7187 60.6486 66.4352C60.6165 66.7134 61.0478 67.2624 61.2253 67.0459C62.3698 65.6504 63.1075 63.9643 63.9735 62.3809C65.4112 59.752 71.8673 47.1528 72.9812 45.0269C74.2718 42.5639 78.4056 34.4966 80.5471 31.5407C80.9843 30.9372 81.7924 29.4591 82.2265 30.0649C82.9318 31.0492 82.2659 32.4969 82.0908 33.6951C81.699 36.3747 81.1059 39.0219 80.5301 41.6681C79.0079 48.664 76.916 56.7227 75.3731 63.721C74.8381 66.1479 74.2739 68.5734 73.9142 71.0324C73.359 74.8289 73.9379 74.1625 75.5258 71.5583C79.2619 65.4312 82.3076 58.8343 85.8567 52.5928" stroke="#9AA0A6" stroke-width="3" stroke-linecap="round"/>
</svg>
