<svg width="65" height="81" viewBox="0 0 65 81" fill="none" xmlns="http://www.w3.org/2000/svg">
  <path d="M39.9562 41.4176C40.5462 39.0578 39.4245 37.6973 36.5887 37.6973C27.1305 37.6973 17.9714 47.7645 16.9611 56.7798C15.9652 65.6656 23.3595 71.2127 31.8742 70.346C47.1798 68.7881 54.8732 53.6934 43.3558 42.1232C41.0405 39.7972 38.0937 37.9444 34.9531 36.9918C27.4629 34.7199 29.4718 41.2018 31.9063 44.4644C34.7864 48.3241 41.1498 53.5367 46.8516 51.2956C52.3294 49.1424 50.2558 42.3461 48.1665 39.2368C45.0671 34.6243 34.2907 29.1009 31.4252 37.6973C29.9948 41.9887 32.5461 47.3193 35.7869 49.9486C37.4818 51.3237 42.7648 51.8307 42.3295 49.692C41.0708 43.508 27.9796 50.5335 26.6145 51.6804C23.541 54.263 20.3233 58.7207 23.9526 62.713C27.8927 67.0471 34.7959 66.1123 39.411 64.2524C47.3219 61.0645 55.3655 50.8517 47.0119 42.8929C36.2612 32.6503 12.7729 39.153 9.29601 53.7972C6.71026 64.688 20.069 66.1964 26.5504 62.7771C31.7874 60.0143 36.4448 54.3398 37.1981 48.2809C37.8367 43.144 33.6032 43.3662 31.4573 46.4849C30.5358 47.8242 29.9858 49.8143 30.6555 51.2956C31.1681 52.4292 33.1419 53.1949 34.1834 52.5143C39.4126 49.0972 36.651 41.5783 33.9268 38.0822C30.1209 33.198 22.9223 28.808 17.5704 35.3882C12.0326 42.197 13.6627 54.3633 15.7744 61.5264C18.8712 72.0305 28.8206 85.4992 40.9825 75.285C47.7515 69.6 52.5822 56.7882 53.5545 48.5375C54.319 42.0499 53.28 30.1045 47.2043 25.1895C36.7612 16.7414 26.5108 32.9549 24.2092 40.231C21.8806 47.5922 20.651 58.1726 26.7108 64.6693C33.2992 71.7329 41.0706 67.5016 45.9856 61.2698C55.9259 48.6663 56.3155 26.8851 44.1896 15.2474C37.13 8.47196 26.6165 8.61275 19.2381 14.6701C11.2439 21.2331 6.05119 35.5161 6.2813 45.4586C6.65545 61.6252 18.3724 76.7978 35.6266 75.5736C60.9885 73.7741 70.1217 42.655 58.3331 23.1369C49.6111 8.69612 30.5954 2.7486 16.8007 14.5418C9.01302 21.1996 5.49329 33.4026 6.34544 43.2136C6.83575 48.8586 10.9098 60.0152 17.8911 62.1357C28.4613 65.3463 28.2956 48.1339 26.7428 43.3098C26.1454 41.4538 22.8636 34.1508 18.6929 37.6332C14.8251 40.8626 16.5168 47.9704 18.0836 51.3277C22.2785 60.3168 33.9538 67.6034 43.9972 62.5206C63.5903 52.6048 53.8813 21.626 42.2012 10.0518C36.1924 4.09752 26.4381 0.264997 18.0194 3.63756C10.5699 6.6219 5.29396 16.096 3.26659 23.1369C1.18891 30.3527 1.3928 40.9212 2.8176 48.2809C5.78668 63.6174 5.55674 53.0123 9.93744 66.8181" stroke="#9AA0A6" stroke-width="3" stroke-linecap="round" />
</svg>
