<svg width="117" height="99" viewBox="0 0 117 99" fill="none" xmlns="http://www.w3.org/2000/svg">
<path d="M65.1739 40.1113C60.4021 37.9174 54.3307 36.8932 49.1302 37.6099C41.2772 38.6921 34.5058 44.5607 35.4441 53.0786C35.7293 55.6674 37.7157 60.0817 40.2457 61.4168C43.7394 63.2605 47.1195 61.07 49.2164 58.3403C52.0302 54.6774 54.2134 47.9053 54.3918 43.3316C54.5674 38.8315 52.0533 33.6298 47.0312 36.963C40.9462 41.0017 40.5929 50.7381 43.1353 56.802C47.3148 66.7706 58.198 67.6486 67.1866 63.8463C78.3231 59.1355 89.7745 47.35 89.369 34.4184C89.1615 27.8005 86.519 23.6889 81.419 19.5678C72.511 12.3697 59.9324 10.4238 48.9002 12.8829C33.5476 16.305 20.0704 29.0391 17.2726 44.798C14.6811 59.3952 25.5346 71.1132 37.7155 77.1443C52.81 84.6179 73.1627 85.9258 88.262 77.6043C99.8989 71.191 102.057 57.2804 97.7503 45.7468C95.1816 38.8669 90.0779 32.8122 83.2016 29.9762C75.6805 26.8742 66.798 27.3294 59.2653 30.1199C51.2944 33.0729 44.3347 38.8753 40.5476 46.5518C38.6046 50.4904 37.6537 53.5133 38.5781 57.9521C40.0968 65.2454 46.3204 73.2545 53.9318 74.9879C65.288 77.574 69.3005 62.8133 63.3338 55.4938C56.7248 47.3864 47.9736 58.8804 45.5649 64.3208C44.0881 67.6562 42.9739 72.9239 43.3222 76.6555C43.4982 78.5402 44.6476 82.4668 47.0312 83.2398C49.5291 84.0497 53.0149 81.4378 54.3918 80.0483C59.1734 75.2229 62.2984 68.2435 62.3562 61.4312C62.439 51.6777 55.3904 44.8747 45.8668 44.0073C33.9028 42.9176 22.086 49.7415 15.7775 59.7204C10.5866 67.9314 8.13386 81.4598 17.2008 88.1708C21.8256 91.5939 26.6221 91.8847 32.1807 91.2329C41.8907 90.0943 51.4271 85.0958 57.7846 77.6043C64.9352 69.1783 68.5187 55.5187 61.7524 45.718C55.6536 36.8841 42.4759 35.3435 33.4889 40.3126C29.9523 42.2681 26.1825 46.5447 25.7258 50.8072C25.3262 54.5373 27.8446 59.7723 31.5913 61.1293C37.8943 63.4121 45.0624 59.5552 49.3027 55.3788C58.3077 46.5094 66.3477 29.9792 60.1423 17.3827C56.4666 9.92128 49.3633 7.73065 41.8558 6.83057C35.1339 6.02467 29.284 6.72478 23.9432 11.1003C16.0465 17.5697 15.3812 31.3214 20.1335 39.7232C24.9099 48.1676 34.9802 50.7973 44.0266 49.7002C54.2147 48.4646 63.5679 42.2735 69.343 33.8721C72.5856 29.155 75.6228 22.1337 73.1383 16.3907C70.8371 11.0713 64.5841 10.4896 60.0848 13.3142C53.2254 17.6205 49.2553 26.543 49.849 34.5046C50.8179 47.4999 62.3153 57.314 74.9353 58.254C84.5391 58.9694 95.468 54.5698 99.6767 45.4018C102.722 38.7669 101.363 28.8932 94.0844 25.5483C85.8865 21.781 77.3962 28.7676 73.1671 35.1659C65.7957 46.3182 62.587 64.5671 73.2821 74.9016C81.2351 82.5866 95.2852 85.1489 105.801 82.7222C108.961 81.993 113.221 79.9489 114.685 76.6555C115.915 73.8903 114.857 69.6899 113.363 67.3397C108.799 60.1609 98.3988 56.5426 90.2459 58.2828C84.6017 59.4875 79.3283 63.1201 75.5248 67.311C70.2508 73.1221 64.1173 82.9284 65.6196 91.3048C66.9602 98.7794 75.9784 97.0987 80.1683 93.6625C86.8065 88.2181 88.6657 78.6248 85.8612 70.7181C81.7392 59.0971 69.9321 52.9485 58.144 52.3023C44.877 51.5751 30.9035 58.9825 28.9173 73.2052C28.5654 75.7254 29.1027 80.9882 31.4763 82.866C34.8022 85.4973 40.0695 83.3105 42.4596 80.7958C47.5673 75.422 49.6106 67.4904 46.715 60.3529C43.2976 51.9294 34.0111 45.2519 25.7833 42.469C19.9049 40.4808 12.4098 40.4693 7.2956 44.5967C4.57077 46.7957 2.25763 52.8407 2.37896 56.3276C2.4974 59.7318 4.71991 63.5802 7.81314 65.1546C14.1064 68.3578 21.9774 65.3937 26.9909 61.3593C35.3243 54.6533 39.4271 43.081 36.5942 32.6789C34.1413 23.6722 25.8943 18.3508 16.6545 20.4879C7.68735 22.5619 2.28089 31.1506 5.02417 40.097C10.3522 57.4727 34.0643 55.7536 47.4338 50.8934C60.9799 45.9691 75.1665 34.6802 77.3937 19.4959C78.6005 11.2682 73.4318 1.04478 63.8801 2.04331C55.3044 2.93981 50.4705 12.1899 50.1077 19.8985C49.4846 33.1399 59.5216 44.6678 72.7502 45.7324C83.7496 46.6176 95.9738 40.8467 101.071 30.7956C102.903 27.1844 103.667 23.5128 101.991 19.6972C100.463 16.2166 98.0689 14.9717 94.2569 15.9738C88.4811 17.4922 84.3809 22.2532 80.9877 26.7703C75.4985 34.0777 72.2027 41.0079 69.1274 49.5996C66.8336 56.0079 65.0741 62.3729 65.1164 69.2086C65.128 71.0726 65.3578 72.9821 66.0078 74.7291C67.9719 80.0082 68.1765 75.8081 71.1257 79.7032" stroke="#9AA0A6" stroke-width="3" stroke-linecap="round"/>
</svg>
