<svg width="32" height="32" viewBox="0 0 32 32" fill="none" xmlns="http://www.w3.org/2000/svg">
<path d="M24.0032 8.42391C24.0032 9.7626 20.3343 10.8478 15.8085 10.8478C11.2828 10.8478 7.61389 9.7626 7.61389 8.42391M24.0032 8.42391C24.0032 7.08522 20.3343 6 15.8085 6C11.2828 6 7.61389 7.08522 7.61389 8.42391M24.0032 8.42391L21.6618 24.7853C21.6618 25.7893 19.0412 26.6032 15.8085 26.6032C12.5758 26.6032 9.95522 25.7893 9.95522 24.7853L7.61389 8.42391" stroke="#4D5156" stroke-width="1.5"/>
<path d="M15.8085 10.8505C19.6007 10.8505 22.7912 10.0886 23.7259 9.05408C23.7675 9.00801 23.9125 9.0604 23.9037 9.12186L21.6618 24.788C21.6618 25.792 19.0412 26.6059 15.8085 26.6059C12.5758 26.6059 9.95522 25.792 9.95522 24.788L7.71339 9.12186C7.70459 9.0604 7.84952 9.00801 7.89115 9.05408C8.82589 10.0886 12.0164 10.8505 15.8085 10.8505Z" fill="#4D5156" stroke="#4D5156" stroke-width="1.5"/>
</svg>
